<?xml version="1.0" standalone="no"?>
<!DOCTYPE svg PUBLIC "-//W3C//DTD SVG 1.1//EN" "http://www.w3.org/Graphics/SVG/1.1/DTD/svg11.dtd" >
<svg>
<metadata>
Created by FontForge 20120731 at Fri Aug 23 12:56:11 2019
 By www
Copyright (c) 2000, Red Rooster Typefoundry. All rights reserved. Data Copyright (c) 1999 dtpTypes Limited.
</metadata>
<defs>
<font id="PhosphateRRSolid" horiz-adv-x="1311" >
  <font-face 
    font-family="PhosphateRRSolid"
    font-weight="400"
    font-stretch="normal"
    units-per-em="2048"
    panose-1="0 0 4 0 0 0 0 0 0 0"
    ascent="1955"
    descent="-93"
    x-height="1366"
    cap-height="1366"
    bbox="-55 -397 2021 1708"
    underline-thickness="150"
    underline-position="-163"
    unicode-range="U+0020-F002"
  />
<missing-glyph horiz-adv-x="1024" 
d="M128 0v1708h768v-1708h-768zM256 128h512v1452h-512v-1452z" />
    <glyph glyph-name=".notdef" horiz-adv-x="1024" 
d="M128 0v1708h768v-1708h-768zM256 128h512v1452h-512v-1452z" />
    <glyph glyph-name=".null" horiz-adv-x="0" 
 />
    <glyph glyph-name="nonmarkingreturn" horiz-adv-x="410" 
 />
    <glyph glyph-name="space" unicode=" " horiz-adv-x="410" 
 />
    <glyph glyph-name="exclam" unicode="!" horiz-adv-x="682" 
d="M573 1366l-67 -963h-328l-69 963h464zM559 0h-436v342h436v-342z" />
    <glyph glyph-name="quotedbl" unicode="&#x22;" horiz-adv-x="797" 
d="M729 1292q0 -35 -24 -75l-207 -340h-99l95 417q23 105 118 105q51 0 84 -29.5t33 -77.5zM385 1292q0 -35 -25 -75l-206 -340h-99l95 417q23 105 118 105q51 0 84 -29.5t33 -77.5z" />
    <glyph glyph-name="numbersign" unicode="#" horiz-adv-x="1104" 
d="M1063 1085l-29 -163h-184l-35 -205h182l-28 -164h-185l-49 -281h-170l49 281h-217l-51 -281h-170l49 281h-184l29 164h184l37 205h-185l29 163h184l50 281h170l-50 -281h220l49 281h170l-49 -281h184zM680 922h-219l-35 -205h217z" />
    <glyph glyph-name="dollar" unicode="$" horiz-adv-x="932" 
d="M920 356q0 -112 -65 -200.5t-177 -130.5q-64 -24 -135 -37v-125h-199v110q-184 6 -330 41v396q89 -21 203 -21q129 0 129 70q0 47 -88 170l-102 141q-115 163 -115 295q0 250 303 313v123h199v-108q148 -3 250 -35v-369l-15 2q-15 0 -35.5 1t-25.5 1q-99 0 -99 -61
q0 -21 11 -37l24 -37q24 -28 84 -104q57 -73 97 -133q86 -133 86 -265z" />
    <glyph glyph-name="percent" unicode="%" horiz-adv-x="1360" 
d="M1038 1366l-587 -1366h-123l587 1366h123zM1319 350q0 -187 -81 -292t-224 -105q-141 0 -222 105t-81 286q0 190 79.5 297t221.5 107q144 0 225.5 -105.5t81.5 -292.5zM649 1008q0 -186 -81 -292t-224 -106q-140 0 -221.5 105t-81.5 286q0 191 80 298.5t221 107.5
q145 0 226 -105.5t81 -293.5zM1085 350q0 180 -71 180q-72 0 -72 -178q0 -182 72 -182q71 0 71 180zM416 1008q0 180 -72 180q-70 0 -70 -176q0 -185 70 -185q72 0 72 181z" />
    <glyph glyph-name="ampersand" unicode="&#x26;" horiz-adv-x="1419" 
d="M1419 408q-48 -65 -82 -103q-131 -145 -284 -231q-193 -109 -435 -109q-250 0 -400 110.5t-150 295.5q0 194 221 331q-10 14 -27 35q-20 24 -47 58q-61 89 -61 215q0 169 126 279t320 110q203 0 333 -115t130 -293q0 -43 -10 -84q-22 -86 -142 -213q-3 -3 -26 -30
l159 -134l101 111zM696 1001q0 82 -84 82q-82 0 -82 -73q0 -57 80 -129q86 71 86 120zM733 344l-160 133q-67 -27 -67 -74q0 -35 35 -58t88 -23q56 0 104 22z" />
    <glyph glyph-name="quotesingle" unicode="'" horiz-adv-x="453" 
d="M385 1292q0 -35 -25 -75l-206 -340h-99l95 417q23 105 118 105q51 0 84 -29.5t33 -77.5z" />
    <glyph glyph-name="parenleft" unicode="(" horiz-adv-x="727" 
d="M727 -205h-383q-80 175 -129 342q-78 267 -78 545q0 280 78 547q49 167 129 342h383q-89 -193 -131 -342q-78 -273 -78 -547q0 -271 78 -545q42 -149 131 -342z" />
    <glyph glyph-name="parenright" unicode=")" horiz-adv-x="727" 
d="M590 682q0 -271 -78 -545q-46 -161 -129 -342h-383q80 175 129 342q78 267 78 545q0 280 -78 547q-49 167 -129 342h383q83 -181 129 -342q78 -273 78 -547z" />
    <glyph glyph-name="asterisk" unicode="*" horiz-adv-x="606" 
d="M553 1018l-49 -84l-152 88v-176h-98v176l-152 -88l-47 84l152 88l-152 88l47 84l152 -88v176h98v-176l152 88l49 -84l-152 -88z" />
    <glyph glyph-name="plus" unicode="+" horiz-adv-x="1202" 
d="M1120 410h-409v-410h-217v410h-412v219h410v409h219v-409h409v-219z" />
    <glyph glyph-name="comma" unicode="," horiz-adv-x="567" 
d="M526 342l-178 -553h-348l137 553h389z" />
    <glyph glyph-name="hyphen" unicode="-" horiz-adv-x="629" 
d="M547 512h-465v342h465v-342z" />
    <glyph glyph-name="hyphen" unicode="&#x2010;" horiz-adv-x="629" 
d="M547 512h-465v342h465v-342z" />
    <glyph glyph-name="period" unicode="." horiz-adv-x="573" 
d="M506 0h-438v342h438v-342z" />
    <glyph glyph-name="slash" unicode="/" horiz-adv-x="711" 
d="M711 1366l-588 -1366h-123l588 1366h123z" />
    <glyph glyph-name="zero" unicode="0" horiz-adv-x="1188" 
d="M1147 682q0 -189 -60 -360q-125 -363 -493 -363q-192 0 -315 96q-108 84 -173 252t-65 365q0 345 145.5 539t403.5 194q195 0 319 -96q110 -85 174 -253.5t64 -373.5zM723 682q0 328 -129 328q-131 0 -131 -322q0 -334 131 -334q129 0 129 328z" />
    <glyph glyph-name="one" unicode="1" horiz-adv-x="649" 
d="M573 0h-436v834l-178 231l287 301h327v-1366z" />
    <glyph glyph-name="two" unicode="2" horiz-adv-x="907" 
d="M879 369l-121 -369h-799l348 655q68 129 68 201q0 133 -170 133h-82v377q95 20 194 20q168 0 279 -40q115 -43 186.5 -150.5t71.5 -239.5q0 -108 -47 -229t-166 -324l-20 -34h258z" />
    <glyph glyph-name="three" unicode="3" horiz-adv-x="784" 
d="M764 485q0 -265 -203 -399q-70 -46 -137 -66q-129 -36 -311 -36q-64 0 -113 2v383h8q273 0 273 147q0 69 -72 146q-27 28 -62 53q-15 10 -63 43q-4 2 -16 10q151 117 151 203q0 94 -141 94h-10v301q107 16 211 16q199 0 308 -80.5t109 -228.5q0 -119 -90 -231
q88 -91 123 -170t35 -187z" />
    <glyph glyph-name="four" unicode="4" horiz-adv-x="1038" 
d="M1024 190h-82v-190h-424v190h-532v111l592 1065h364v-793h82v-383zM518 403v328l-180 -328h180z" />
    <glyph glyph-name="five" unicode="5" horiz-adv-x="854" 
d="M819 983h-272q258 -149 258 -461q0 -333 -280 -474q-147 -75 -480 -75h-31v389h13q276 0 276 193q0 101 -98 156q-66 36 -197 77l-8 5l252 573h567v-383z" />
    <glyph glyph-name="six" unicode="6" horiz-adv-x="1112" 
d="M1085 489q0 -216 -154 -370t-372 -154q-226 0 -376 157.5t-150 395.5q0 232 135 469q78 137 281 379h524q-159 -175 -293 -371q116 -33 160 -57q106 -59 175.5 -186t69.5 -263zM682 492q0 50 -36 86t-87 36q-49 0 -86 -35.5t-37 -84.5q0 -52 36 -88.5t87 -36.5t87 36
t36 87z" />
    <glyph glyph-name="seven" unicode="7" horiz-adv-x="948" 
d="M983 1366l-539 -1366h-458l389 983h-361l136 383h833z" />
    <glyph glyph-name="eight" unicode="8" horiz-adv-x="1038" 
d="M1024 473q0 -211 -148 -359.5t-358 -148.5q-209 0 -356.5 149t-147.5 359q0 205 131 324q-53 86 -53 180q0 173 125.5 297.5t300.5 124.5q174 0 301 -123.5t127 -292.5q0 -95 -53 -188q81 -86 106 -147t25 -175zM600 973q0 34 -24 58t-58 24q-32 0 -57 -24t-25 -56
q0 -35 24 -59.5t58 -24.5t58 24t24 58zM629 471q0 45 -32.5 77t-78.5 32q-44 0 -76 -32t-32 -75q0 -46 31.5 -78.5t76.5 -32.5q46 0 78.5 32t32.5 77z" />
    <glyph glyph-name="nine" unicode="9" horiz-adv-x="1106" 
d="M1079 848q0 -234 -135 -471q-79 -138 -280 -377h-525q151 164 295 371q-106 26 -162 57q-105 59 -175 186t-70 260q0 217 154.5 371t371.5 154q226 0 376 -157.5t150 -393.5zM676 872q0 53 -36 89t-87 36t-87 -36t-36 -87q0 -50 36 -86t87 -36q50 0 86.5 35.5t36.5 84.5z
" />
    <glyph glyph-name="colon" unicode=":" horiz-adv-x="629" 
d="M532 635h-436v342h436v-342zM532 0h-436v342h436v-342z" />
    <glyph glyph-name="semicolon" unicode=";" horiz-adv-x="567" 
d="M526 635h-438v342h438v-342zM526 342l-178 -553h-348l137 553h389z" />
    <glyph glyph-name="less" unicode="&#x3c;" horiz-adv-x="1161" 
d="M696 586l-20 -19l-96 97l-97 -97l-18 19l96 96l-96 96l18 21l97 -97l96 97l20 -21l-96 -96z" />
    <glyph glyph-name="equal" unicode="=" horiz-adv-x="1202" 
d="M1120 606h-1038v217h1038v-217zM1120 213h-1038v219h1038v-219z" />
    <glyph glyph-name="greater" unicode="&#x3e;" horiz-adv-x="1161" 
d="M696 586l-20 -19l-96 97l-97 -97l-18 19l96 96l-96 96l18 21l97 -97l96 97l20 -21l-96 -96z" />
    <glyph glyph-name="question" unicode="?" horiz-adv-x="897" 
d="M829 979q0 -117 -86 -256q-80 -129 -106 -191q-25 -57 -37 -129h-436q1 98 23 159q20 58 81 143q80 109 80 172q0 75 -65 102q-46 18 -158 18h-16v381q111 21 208 21q232 0 372 -115t140 -305zM600 0h-436v342h436v-342z" />
    <glyph glyph-name="at" unicode="@" horiz-adv-x="1812" 
d="M1745 735q0 -203 -112.5 -329.5t-293.5 -126.5q-190 0 -266 161q-102 -149 -258 -149q-120 0 -194 86t-74 225q0 194 119.5 329.5t289.5 135.5q73 0 148 -35l4 41h205l-76 -516q0 -4 -1 -12t-1 -13q0 -61 41.5 -103t99.5 -42q103 0 168.5 87t65.5 226q0 280 -178.5 451.5
t-468.5 171.5q-291 0 -475.5 -177.5t-184.5 -455.5q0 -273 197 -462t483 -189q129 0 260 45q64 22 148 68l47 -91q-238 -137 -510 -137q-361 0 -596.5 213.5t-235.5 542.5q0 333 236.5 547.5t605.5 214.5q365 0 586 -193.5t221 -513.5zM1094 944q-58 37 -105 37
q-93 0 -158 -101t-65 -247q0 -203 133 -203q59 0 102.5 58.5t55.5 152.5z" />
    <glyph glyph-name="A" unicode="A" 
d="M1337 0h-430l-45 123h-413l-46 -123h-430l519 1366h327zM748 424l-93 240l-92 -240h185z" />
    <glyph glyph-name="B" unicode="B" horiz-adv-x="1153" 
d="M1133 430q0 -198 -127 -314t-344 -116h-586v1366h565q188 0 299 -90q131 -106 131 -275q0 -141 -102 -249q164 -96 164 -322zM649 948q0 96 -123 96h-28v-190h28q123 0 123 94zM702 440q0 119 -176 119h-28v-237h28q176 0 176 118z" />
    <glyph glyph-name="C" unicode="C" horiz-adv-x="1309" 
d="M1337 133q-237 -168 -508 -168q-326 0 -557 210t-231 507q0 298 230.5 507.5t557.5 209.5q260 0 476 -146l-224 -389q-97 105 -256 105q-127 0 -219 -84.5t-92 -202.5t92 -202.5t221 -84.5q137 0 269 117z" />
    <glyph glyph-name="D" unicode="D" horiz-adv-x="1305" 
d="M1264 682q0 -197 -95 -367q-97 -175 -261.5 -245t-477.5 -70h-354v1366h354q271 0 449 -59q170 -58 277.5 -231.5t107.5 -393.5zM834 682q0 128 -85.5 211.5t-216.5 83.5h-14v-588h14q131 0 216.5 83t85.5 210z" />
    <glyph glyph-name="E" unicode="E" horiz-adv-x="948" 
d="M895 0h-819v1366h805v-358h-369v-152h362v-340h-362v-158h383v-358z" />
    <glyph glyph-name="F" unicode="F" horiz-adv-x="922" 
d="M881 1008h-369v-152h362v-340h-362v-516h-436v1366h805v-358z" />
    <glyph glyph-name="G" unicode="G" horiz-adv-x="1427" 
d="M1386 338q-101 -177 -265.5 -275t-362.5 -98q-297 0 -507 210.5t-210 506.5t210 506.5t505 210.5q163 0 303 -66q54 -25 129 -78l-246 -354q-83 68 -182 68q-120 0 -204.5 -83.5t-84.5 -203.5q0 -118 84 -202.5t203 -84.5q133 0 225 111h-123v287h526v-455z" />
    <glyph glyph-name="H" unicode="H" horiz-adv-x="1270" 
d="M1194 0h-436v506h-246v-506h-436v1366h436v-465h246v465h436v-1366z" />
    <glyph glyph-name="I" unicode="I" horiz-adv-x="614" 
d="M539 0h-463v1366h463v-1366z" />
    <glyph glyph-name="J" unicode="J" horiz-adv-x="782" 
d="M711 465q0 -117 -2 -191q-2 -59 -17 -110q-47 -164 -266 -164h-426v328h154q49 0 75 26q18 14 21 33q3 9 6 43q4 29 4 53v883h451v-901z" />
    <glyph glyph-name="K" unicode="K" horiz-adv-x="1296" 
d="M1331 0h-530l-289 422v-422h-436v1366h436v-301l258 301h535l-482 -625z" />
    <glyph glyph-name="L" unicode="L" horiz-adv-x="907" 
d="M907 0h-831v1366h450v-1012h381v-354z" />
    <glyph glyph-name="M" unicode="M" horiz-adv-x="1583" 
d="M1509 0h-438v492l-278 -410l-281 410v-492h-436v1366h360l357 -520l354 520h362v-1366z" />
    <glyph glyph-name="N" unicode="N" horiz-adv-x="1317" 
d="M1243 0h-362l-375 524v-524h-430v1366h360l377 -526v526h430v-1366z" />
    <glyph glyph-name="O" unicode="O" horiz-adv-x="1516" 
d="M1475 682q0 -296 -210.5 -506.5t-506.5 -210.5q-294 0 -505.5 209t-211.5 498q0 302 207 514.5t504 212.5q301 0 512 -209t211 -508zM1044 682q0 119 -84 203t-202 84q-117 0 -202 -83.5t-85 -199.5q0 -121 83 -206t202 -85q120 0 204 83.5t84 203.5z" />
    <glyph glyph-name="P" unicode="P" horiz-adv-x="1161" 
d="M1133 846q0 -154 -70 -277q-74 -130 -198.5 -184t-358.5 -57v-328h-430v1366h430q199 0 336 -49q130 -47 210.5 -177t80.5 -294zM686 846q0 148 -180 151v-301q180 3 180 150z" />
    <glyph glyph-name="Q" unicode="Q" horiz-adv-x="1522" 
d="M1516 342l-185 -356h-403q-92 -21 -168 -21q-298 0 -508.5 210t-210.5 507q0 298 210 507.5t507 209.5t507 -209.5t210 -507.5q0 -109 -17 -174.5t-69 -165.5h127zM1044 682q0 119 -84 203t-202 84q-117 0 -202 -83.5t-85 -199.5q0 -121 83 -206t202 -85q120 0 204 83.5
t84 203.5z" />
    <glyph glyph-name="R" unicode="R" horiz-adv-x="1208" 
d="M1229 0h-496l-221 336v-336h-436v1366h483q252 0 406 -123q91 -73 145.5 -184t54.5 -225q0 -154 -78 -265q-36 -52 -114 -118zM713 846q0 90 -74 131q-37 20 -107 20h-20v-301h20q72 0 107 21q74 42 74 129z" />
    <glyph glyph-name="S" unicode="S" horiz-adv-x="932" 
d="M920 356q0 -179 -148 -281t-407 -102q-190 0 -351 41v396q89 -21 203 -21q129 0 129 70q0 47 -88 170l-102 141q-115 163 -115 295q0 155 125 241.5t350 86.5q166 0 277 -35v-369l-15 2q-15 0 -35.5 1t-25.5 1q-99 0 -99 -61q0 -21 11 -37l24 -37q24 -28 84.5 -104.5
t96.5 -132.5q86 -135 86 -265z" />
    <glyph glyph-name="T" unicode="T" horiz-adv-x="956" 
d="M956 1010h-254v-1010h-450v1010h-252v356h956v-356z" />
    <glyph glyph-name="U" unicode="U" horiz-adv-x="1270" 
d="M1202 477q0 -224 -159 -368t-408 -144t-408 144t-159 368v889h458v-788q0 -209 109 -209q108 0 108 209v788h459v-889z" />
    <glyph glyph-name="V" unicode="V" horiz-adv-x="1366" 
d="M1393 1366l-533 -1366h-354l-533 1366h478l231 -594l233 594h478z" />
    <glyph glyph-name="W" unicode="W" horiz-adv-x="1802" 
d="M1829 1366l-451 -1366h-340l-137 414l-137 -414h-340l-451 1366h463l158 -477l158 477h299l157 -477l158 477h463z" />
    <glyph glyph-name="X" unicode="X" horiz-adv-x="1202" 
d="M1229 0h-477l-152 272l-149 -272h-478l389 707l-362 659h477l123 -223l123 223h479l-362 -659z" />
    <glyph glyph-name="Y" unicode="Y" horiz-adv-x="1214" 
d="M1249 1366l-424 -778v-588h-436v588l-424 778h486l157 -289l156 289h485z" />
    <glyph glyph-name="Z" unicode="Z" horiz-adv-x="1065" 
d="M1065 1366l-461 -977h447l-150 -389h-948l471 997h-377l143 369h875z" />
    <glyph glyph-name="bracketleft" unicode="[" horiz-adv-x="655" 
d="M696 -205h-559v1776h559v-76h-178v-1624h178v-76z" />
    <glyph glyph-name="backslash" unicode="\" horiz-adv-x="711" 
d="M711 0h-123l-588 1366h123z" />
    <glyph glyph-name="bracketright" unicode="]" horiz-adv-x="655" 
d="M518 -205h-559v76h178v1624h-178v76h559v-1776z" />
    <glyph glyph-name="asciicircum" unicode="^" horiz-adv-x="1161" 
d="M696 586l-20 -19l-96 97l-97 -97l-18 19l96 96l-96 96l18 21l97 -97l96 97l20 -21l-96 -96z" />
    <glyph glyph-name="underscore" unicode="_" horiz-adv-x="1104" 
d="M1104 -313h-1104v149h1104v-149z" />
    <glyph glyph-name="grave" unicode="`" horiz-adv-x="504" 
d="M436 1434h-172l-196 227h297z" />
    <glyph glyph-name="a" unicode="a" 
d="M1337 0h-430l-45 123h-413l-46 -123h-430l519 1366h327zM748 424l-93 240l-92 -240h185z" />
    <glyph glyph-name="b" unicode="b" horiz-adv-x="1153" 
d="M1133 430q0 -198 -127 -314t-344 -116h-586v1366h565q188 0 299 -90q131 -106 131 -275q0 -141 -102 -249q164 -96 164 -322zM649 948q0 96 -123 96h-28v-190h28q123 0 123 94zM702 440q0 119 -176 119h-28v-237h28q176 0 176 118z" />
    <glyph glyph-name="c" unicode="c" horiz-adv-x="1309" 
d="M1337 133q-237 -168 -508 -168q-326 0 -557 210t-231 507q0 298 230.5 507.5t557.5 209.5q260 0 476 -146l-224 -389q-97 105 -256 105q-127 0 -219 -84.5t-92 -202.5t92 -202.5t221 -84.5q137 0 269 117z" />
    <glyph glyph-name="d" unicode="d" horiz-adv-x="1305" 
d="M1264 682q0 -197 -95 -367q-97 -175 -261.5 -245t-477.5 -70h-354v1366h354q271 0 449 -59q170 -58 277.5 -231.5t107.5 -393.5zM834 682q0 128 -85.5 211.5t-216.5 83.5h-14v-588h14q131 0 216.5 83t85.5 210z" />
    <glyph glyph-name="e" unicode="e" horiz-adv-x="948" 
d="M895 0h-819v1366h805v-358h-369v-152h362v-340h-362v-158h383v-358z" />
    <glyph glyph-name="f" unicode="f" horiz-adv-x="922" 
d="M881 1008h-369v-152h362v-340h-362v-516h-436v1366h805v-358z" />
    <glyph glyph-name="g" unicode="g" horiz-adv-x="1427" 
d="M1386 338q-101 -177 -265.5 -275t-362.5 -98q-297 0 -507 210.5t-210 506.5t210 506.5t505 210.5q163 0 303 -66q54 -25 129 -78l-246 -354q-83 68 -182 68q-120 0 -204.5 -83.5t-84.5 -203.5q0 -118 84 -202.5t203 -84.5q133 0 225 111h-123v287h526v-455z" />
    <glyph glyph-name="h" unicode="h" horiz-adv-x="1270" 
d="M1194 0h-436v506h-246v-506h-436v1366h436v-465h246v465h436v-1366z" />
    <glyph glyph-name="i" unicode="i" horiz-adv-x="614" 
d="M539 0h-463v1366h463v-1366z" />
    <glyph glyph-name="j" unicode="j" horiz-adv-x="782" 
d="M711 465q0 -117 -2 -191q-2 -59 -17 -110q-47 -164 -266 -164h-426v328h154q49 0 75 26q18 14 21 33q3 9 6 43q4 29 4 53v883h451v-901z" />
    <glyph glyph-name="k" unicode="k" horiz-adv-x="1223" 
d="M1249 195l-356 -263l-381 514v-446h-436v1366h436v-324l393 392l303 -306l-374 -372z" />
    <glyph glyph-name="l" unicode="l" horiz-adv-x="907" 
d="M907 0h-831v1366h450v-1012h381v-354z" />
    <glyph glyph-name="m" unicode="m" horiz-adv-x="1583" 
d="M1509 0h-438v492l-278 -410l-281 410v-492h-436v1366h360l357 -520l354 520h362v-1366z" />
    <glyph glyph-name="n" unicode="n" horiz-adv-x="1317" 
d="M1243 0h-362l-375 524v-524h-430v1366h360l377 -526v526h430v-1366z" />
    <glyph glyph-name="o" unicode="o" horiz-adv-x="1516" 
d="M1475 682q0 -296 -210.5 -506.5t-506.5 -210.5q-294 0 -505.5 209t-211.5 498q0 302 207 514.5t504 212.5q301 0 512 -209t211 -508zM1044 682q0 119 -84 203t-202 84q-117 0 -202 -83.5t-85 -199.5q0 -121 83 -206t202 -85q120 0 204 83.5t84 203.5z" />
    <glyph glyph-name="p" unicode="p" horiz-adv-x="1161" 
d="M1133 846q0 -154 -70 -277q-74 -130 -198.5 -184t-358.5 -57v-328h-430v1366h430q199 0 336 -49q130 -47 210.5 -177t80.5 -294zM686 846q0 148 -180 151v-301q180 3 180 150z" />
    <glyph glyph-name="q" unicode="q" horiz-adv-x="1522" 
d="M1516 342l-185 -356h-403q-92 -21 -168 -21q-298 0 -508.5 210t-210.5 507q0 298 210 507.5t507 209.5t507 -209.5t210 -507.5q0 -109 -17 -174.5t-69 -165.5h127zM1044 682q0 119 -84 203t-202 84q-117 0 -202 -83.5t-85 -199.5q0 -121 83 -206t202 -85q120 0 204 83.5
t84 203.5z" />
    <glyph glyph-name="r" unicode="r" horiz-adv-x="1208" 
d="M1229 0h-496l-221 336v-336h-436v1366h483q252 0 406 -123q91 -73 145.5 -184t54.5 -225q0 -154 -78 -265q-36 -52 -114 -118zM713 846q0 90 -74 131q-37 20 -107 20h-20v-301h20q72 0 107 21q74 42 74 129z" />
    <glyph glyph-name="s" unicode="s" horiz-adv-x="932" 
d="M920 356q0 -179 -148 -281t-407 -102q-190 0 -351 41v396q89 -21 203 -21q129 0 129 70q0 47 -88 170l-102 141q-115 163 -115 295q0 155 125 241.5t350 86.5q166 0 277 -35v-369l-15 2q-15 0 -35.5 1t-25.5 1q-99 0 -99 -61q0 -21 11 -37l24 -37q24 -28 84.5 -104.5
t96.5 -132.5q86 -135 86 -265z" />
    <glyph glyph-name="t" unicode="t" horiz-adv-x="956" 
d="M956 1010h-254v-1010h-450v1010h-252v356h956v-356z" />
    <glyph glyph-name="u" unicode="u" horiz-adv-x="1270" 
d="M1202 477q0 -224 -159 -368t-408 -144t-408 144t-159 368v889h458v-788q0 -209 109 -209q108 0 108 209v788h459v-889z" />
    <glyph glyph-name="v" unicode="v" horiz-adv-x="1366" 
d="M1393 1366l-533 -1366h-354l-533 1366h478l231 -594l233 594h478z" />
    <glyph glyph-name="w" unicode="w" horiz-adv-x="1802" 
d="M1829 1366l-451 -1366h-340l-137 414l-137 -414h-340l-451 1366h463l158 -477l158 477h299l157 -477l158 477h463z" />
    <glyph glyph-name="x" unicode="x" horiz-adv-x="1202" 
d="M1229 0h-477l-152 272l-149 -272h-478l389 707l-362 659h477l123 -223l123 223h479l-362 -659z" />
    <glyph glyph-name="y" unicode="y" horiz-adv-x="1202" 
d="M1229 1143l-404 -568v-575h-450v575l-402 568l361 256l266 -375l268 375z" />
    <glyph glyph-name="z" unicode="z" horiz-adv-x="1065" 
d="M1065 1366l-461 -977h447l-150 -389h-948l471 997h-377l143 369h875z" />
    <glyph glyph-name="braceleft" unicode="{" horiz-adv-x="610" 
d="M610 -205q-41 -2 -69 -2q-180 0 -254 60q-78 61 -78 186q0 18 20 182q11 82 11 158q0 240 -172 285v73q92 26 131 89.5t39 187.5q0 58 -9 116l-18 132q-2 14 -2 49q0 191 170 242q60 18 199 18h32v-80q-151 -9 -151 -139q0 -15 16 -142q10 -79 10 -143q0 -161 -53 -239.5
t-192 -125.5q132 -39 189.5 -135t57.5 -274q0 -63 -8 -127q-18 -145 -18 -160q0 -129 149 -135v-76z" />
    <glyph glyph-name="bar" unicode="|" horiz-adv-x="696" 
d="M424 -55h-152v1474h152v-1474z" />
    <glyph glyph-name="braceright" unicode="}" horiz-adv-x="610" 
d="M541 664q-170 -44 -170 -285q0 -76 10 -158l4 -29q14 -121 14 -153q0 -126 -75 -186t-254 -60q-31 0 -70 2v76q150 6 150 135q0 31 -19 160q-8 57 -8 127q0 178 57.5 273.5t188.5 135.5q-140 46 -192 124.5t-52 240.5q0 64 10 143q15 111 15 142q0 130 -150 139v80h31
q199 0 280 -60q90 -66 90 -200q0 -17 -4 -49l-16 -132q-8 -65 -8 -116q0 -125 38 -188t130 -89v-73z" />
    <glyph glyph-name="asciitilde" unicode="~" horiz-adv-x="1161" 
d="M696 586l-20 -19l-96 97l-97 -97l-18 19l96 96l-96 96l18 21l97 -97l96 97l20 -21l-96 -96z" />
    <glyph glyph-name="exclamdown" unicode="&#xa1;" horiz-adv-x="682" 
d="M559 1024h-436v342h436v-342zM573 0h-464l69 963h328z" />
    <glyph glyph-name="cent" unicode="&#xa2;" horiz-adv-x="999" 
d="M1026 272q-70 -82 -151.5 -118.5t-217.5 -47.5v-106h-198v127q-188 55 -303 208t-115 347q0 197 113 347t305 208v129h198v-106q186 -19 324 -127l-162 -295q-100 75 -192 75q-102 0 -171 -66.5t-69 -164.5q0 -94 67.5 -162.5t159.5 -68.5q103 0 220 98z" />
    <glyph glyph-name="sterling" unicode="&#xa3;" horiz-adv-x="1083" 
d="M1083 383l-135 -383h-930l103 496h-127l35 178h129l8 41h-129l37 176h129l30 153q34 170 156 266.5t301 96.5q90 0 191 -29q90 -25 190 -90l-244 -342q-78 66 -118 66q-64 0 -97 -121h129l-34 -176h-132l-6 -41h129l-36 -178h-130l-22 -113h573z" />
    <glyph glyph-name="currency" unicode="&#xa4;" horiz-adv-x="1536" 
d="M1319 315l-162 -161l-123 127q-95 -80 -270 -80q-171 0 -275 78l-122 -121l-158 157l123 123q-80 144 -80 275q0 145 80 278l-117 113l162 164l117 -119q35 30 111 52q80 24 159 24q178 0 276 -78l119 121l160 -160l-121 -117q88 -116 88 -278q0 -176 -88 -275zM975 713
q0 99 -68 159q-60 54 -143 54q-76 0 -135 -54q-68 -61 -68 -159q0 -97 68 -158q59 -53 135 -53q84 0 144 53q67 59 67 158z" />
    <glyph glyph-name="yen" unicode="&#xa5;" horiz-adv-x="1229" 
d="M1255 1366l-301 -557h193v-176h-289l-22 -41h311v-178h-313v-414h-439v414h-313v178h311l-20 41h-291v176h192l-301 557h484l157 -289l158 289h483z" />
    <glyph glyph-name="section" unicode="&#xa7;" horiz-adv-x="1161" 
d="M696 586l-20 -19l-96 97l-97 -97l-18 19l96 96l-96 96l18 21l97 -97l96 97l20 -21l-96 -96z" />
    <glyph glyph-name="dieresis" unicode="&#xa8;" horiz-adv-x="729" 
d="M662 1434h-226v211h226v-211zM293 1434h-225v211h225v-211z" />
    <glyph glyph-name="copyright" unicode="&#xa9;" horiz-adv-x="1747" 
d="M1583 682q0 -290 -206 -499.5t-492 -209.5q-301 0 -511 205.5t-210 499.5q0 298 207 506.5t503 208.5q294 0 501.5 -208t207.5 -503zM1516 678q0 269 -187 458t-455 189q-267 0 -455 -188t-188 -455q0 -263 187 -452t446 -189q272 0 462 185.5t190 451.5zM1212 367
q-135 -99 -292 -99q-191 0 -325 122t-134 294t134 294t325 122q151 0 274 -84l-129 -225q-58 61 -147 61q-76 0 -129.5 -49.5t-53.5 -118.5q0 -68 53.5 -117t129.5 -49q79 0 155 68z" />
    <glyph glyph-name="ordfeminine" unicode="&#xaa;" horiz-adv-x="1161" 
d="M696 586l-20 -19l-96 97l-97 -97l-18 19l96 96l-96 96l18 21l97 -97l96 97l20 -21l-96 -96z" />
    <glyph glyph-name="guillemotleft" unicode="&#xab;" horiz-adv-x="1206" 
d="M1139 0h-295l-271 465l271 463h295l-244 -463zM633 0h-295l-270 465l270 463h295l-242 -463z" />
    <glyph glyph-name="logicalnot" unicode="&#xac;" horiz-adv-x="1192" 
d="M1106 86h-213v358h-807v209h1020v-567z" />
    <glyph glyph-name="registered" unicode="&#xae;" horiz-adv-x="1346" 
d="M1249 815q0 -235 -167.5 -405t-399.5 -170q-244 0 -415 166.5t-171 404.5q0 243 168 412.5t408 169.5q239 0 408 -169t169 -409zM1176 811q0 212 -147 360t-357 148q-208 0 -356 -147.5t-148 -356.5q0 -206 147.5 -355t350.5 -149q213 0 361.5 146t148.5 354zM948 516
h-219l-96 148v-148h-193v600h213q118 0 192.5 -65t74.5 -168q0 -95 -84 -168zM721 889q0 65 -80 65h-8v-133h8q80 0 80 68z" />
    <glyph glyph-name="macron" unicode="&#xaf;" horiz-adv-x="635" 
d="M567 1475h-499v141h499v-141z" />
    <glyph glyph-name="macron" unicode="&#x2c9;" horiz-adv-x="635" 
d="M567 1475h-499v141h499v-141z" />
    <glyph glyph-name="degree" unicode="&#xb0;" horiz-adv-x="510" 
d="M442 1212q0 -78 -55 -132t-133 -54q-77 0 -131.5 54t-54.5 130q0 80 53.5 134.5t132.5 54.5q78 0 133 -54t55 -133zM340 1212q0 36 -25.5 61t-60.5 25q-34 0 -59 -25t-25 -59q0 -36 24 -61t60 -25q35 0 60.5 24.5t25.5 59.5z" />
    <glyph glyph-name="plusminus" unicode="&#xb1;" horiz-adv-x="1202" 
d="M1120 737h-409v-411h-217v411h-412v217h410v412h219v-412h409v-217zM1120 0h-1038v219h1038v-219z" />
    <glyph glyph-name="acute" unicode="&#xb4;" horiz-adv-x="504" 
d="M436 1661l-196 -227h-172l71 227h297z" />
    <glyph glyph-name="paragraph" unicode="&#xb6;" horiz-adv-x="1237" 
d="M1169 1171h-106v-1554h-184v1554h-183v-1554h-184v897q-78 0 -143 13l-7 1q-133 28 -213.5 137t-80.5 265q0 257 192 370q112 66 320 66h589v-195zM512 692v479h-4q-55 0 -96 -10q-146 -37 -146 -231q0 -112 57 -175t158 -63h31z" />
    <glyph glyph-name="periodcentered" unicode="&#xb7;" horiz-adv-x="573" 
d="M506 512h-438v342h438v-342z" />
    <glyph glyph-name="periodcentered" unicode="&#x2219;" horiz-adv-x="573" 
d="M506 512h-438v342h438v-342z" />
    <glyph glyph-name="cedilla" unicode="&#xb8;" horiz-adv-x="506" 
d="M438 -233q0 -68 -65 -112t-166 -44q-62 0 -139 16l22 103q57 -17 98 -17q88 0 88 56q0 53 -77 53q-21 0 -47 -2l88 180h110l-53 -115q141 -15 141 -118z" />
    <glyph glyph-name="ordmasculine" unicode="&#xba;" horiz-adv-x="1161" 
d="M696 586l-20 -19l-96 97l-97 -97l-18 19l96 96l-96 96l18 21l97 -97l96 97l20 -21l-96 -96z" />
    <glyph glyph-name="guillemotright" unicode="&#xbb;" horiz-adv-x="1206" 
d="M1139 465l-271 -465h-295l242 465l-242 463h295zM633 465l-271 -465h-294l243 465l-243 463h294z" />
    <glyph glyph-name="questiondown" unicode="&#xbf;" horiz-adv-x="897" 
d="M733 1059h-436v340h436v-340zM788 20q-125 -20 -208 -20q-232 0 -372 114.5t-140 305.5q0 114 86 256q44 71 108 190q22 51 35 131h436q-1 -98 -23 -159q-20 -57 -81 -142q-80 -111 -80 -172q0 -74 67 -102q44 -19 156 -19h16v-383z" />
    <glyph glyph-name="Agrave" unicode="&#xc0;" 
d="M1337 0h-430l-45 123h-413l-46 -123h-430l519 1366h327zM748 424l-93 240l-92 -240h185zM755 1434h-172l-196 227h297z" />
    <glyph glyph-name="Aacute" unicode="&#xc1;" 
d="M1337 0h-430l-45 123h-413l-46 -123h-430l519 1366h327zM748 424l-93 240l-92 -240h185zM907 1661l-196 -227h-172l71 227h297z" />
    <glyph glyph-name="Acircumflex" unicode="&#xc2;" 
d="M1337 0h-430l-45 123h-413l-46 -123h-430l519 1366h327zM748 424l-93 240l-92 -240h185zM954 1434h-190l-105 104l-102 -104h-192l139 227h313z" />
    <glyph glyph-name="Atilde" unicode="&#xc3;" 
d="M1337 0h-430l-45 123h-413l-46 -123h-430l519 1366h327zM748 424l-93 240l-92 -240h185zM963 1661q-2 -29 -10 -90q-29 -137 -156 -137q-73 0 -162 39q-61 26 -98 26q-45 0 -45 -65h-137v10q0 219 165 219q66 0 164 -45q54 -25 88 -25q44 0 50 68h141z" />
    <glyph glyph-name="Adieresis" unicode="&#xc4;" 
d="M1337 0h-430l-45 123h-413l-46 -123h-430l519 1366h327zM748 424l-93 240l-92 -240h185zM959 1434h-226v211h226v-211zM590 1434h-225v211h225v-211z" />
    <glyph glyph-name="Aring" unicode="&#xc5;" 
d="M1337 0h-430l-45 123h-413l-46 -123h-430l519 1366h327zM748 424l-93 240l-92 -240h185zM828 1536q0 -71 -50 -120.5t-120 -49.5q-71 0 -121.5 49.5t-50.5 118.5q0 72 49.5 123t120.5 51q72 0 122 -50t50 -122zM740 1536q0 34 -24.5 58t-57.5 24q-34 0 -58 -24t-24 -56
q0 -35 23 -59.5t57 -24.5q35 0 59.5 24t24.5 58z" />
    <glyph glyph-name="AE" unicode="&#xc6;" horiz-adv-x="1802" 
d="M1747 0h-852l-47 123h-412l-47 -123h-430l518 1366h328l123 -324v324h807v-358h-369v-152h360v-340h-360v-158h381v-358zM733 424l-92 240l-90 -240h182z" />
    <glyph glyph-name="Ccedilla" unicode="&#xc7;" horiz-adv-x="1309" 
d="M1337 133q-62 -45 -112 -72q-181 -96 -389 -96h-23l-39 -80q141 -15 141 -118q0 -68 -65 -112t-166 -44q-60 0 -137 16l20 103q58 -17 99 -17q88 0 88 56q0 53 -78 53q-21 0 -45 -2l76 155q-107 19 -175 43q-223 83 -357 264t-134 400q0 298 230.5 507.5t557.5 209.5
q260 0 476 -146l-224 -389q-97 105 -256 105q-127 0 -219 -84.5t-92 -202.5t92 -202.5t221 -84.5q137 0 269 117z" />
    <glyph glyph-name="Egrave" unicode="&#xc8;" horiz-adv-x="948" 
d="M895 0h-819v1366h805v-358h-369v-152h362v-340h-362v-158h383v-358zM620 1434h-172l-196 227h297z" />
    <glyph glyph-name="Eacute" unicode="&#xc9;" horiz-adv-x="948" 
d="M895 0h-819v1366h805v-358h-369v-152h362v-340h-362v-158h383v-358zM723 1661l-196 -227h-172l71 227h297z" />
    <glyph glyph-name="Ecircumflex" unicode="&#xca;" horiz-adv-x="948" 
d="M895 0h-819v1366h805v-358h-369v-152h362v-340h-362v-158h383v-358zM780 1434h-190l-105 104l-102 -104h-192l139 227h313z" />
    <glyph glyph-name="Edieresis" unicode="&#xcb;" horiz-adv-x="948" 
d="M895 0h-819v1366h805v-358h-369v-152h362v-340h-362v-158h383v-358zM785 1434h-226v211h226v-211zM416 1434h-225v211h225v-211z" />
    <glyph glyph-name="Igrave" unicode="&#xcc;" horiz-adv-x="614" 
d="M539 0h-463v1366h463v-1366zM436 1434h-172l-196 227h297z" />
    <glyph glyph-name="Iacute" unicode="&#xcd;" horiz-adv-x="614" 
d="M539 0h-463v1366h463v-1366zM559 1661l-196 -227h-172l71 227h297z" />
    <glyph glyph-name="Icircumflex" unicode="&#xce;" horiz-adv-x="614" 
d="M539 0h-463v1366h463v-1366zM600 1434h-190l-105 104l-102 -104h-192l139 227h313z" />
    <glyph glyph-name="Idieresis" unicode="&#xcf;" horiz-adv-x="614" 
d="M539 0h-463v1366h463v-1366zM605 1434h-226v211h226v-211zM236 1434h-225v211h225v-211z" />
    <glyph glyph-name="Ntilde" unicode="&#xd1;" horiz-adv-x="1317" 
d="M1243 0h-362l-375 524v-524h-430v1366h360l377 -526v526h430v-1366zM963 1661q-2 -29 -10 -90q-29 -137 -156 -137q-73 0 -162 39q-61 26 -98 26q-45 0 -45 -65h-137v10q0 219 165 219q66 0 164 -45q54 -25 88 -25q44 0 50 68h141z" />
    <glyph glyph-name="Ograve" unicode="&#xd2;" horiz-adv-x="1516" 
d="M1475 682q0 -296 -210.5 -506.5t-506.5 -210.5q-294 0 -505.5 209t-211.5 498q0 302 207 514.5t504 212.5q301 0 512 -209t211 -508zM1044 682q0 119 -84 203t-202 84q-117 0 -202 -83.5t-85 -199.5q0 -121 83 -206t202 -85q120 0 204 83.5t84 203.5zM833 1434h-172
l-196 227h297z" />
    <glyph glyph-name="Oacute" unicode="&#xd3;" horiz-adv-x="1516" 
d="M1475 682q0 -296 -210.5 -506.5t-506.5 -210.5q-294 0 -505.5 209t-211.5 498q0 302 207 514.5t504 212.5q301 0 512 -209t211 -508zM1044 682q0 119 -84 203t-202 84q-117 0 -202 -83.5t-85 -199.5q0 -121 83 -206t202 -85q120 0 204 83.5t84 203.5zM1009 1661
l-196 -227h-172l71 227h297z" />
    <glyph glyph-name="Ocircumflex" unicode="&#xd4;" horiz-adv-x="1516" 
d="M1475 682q0 -296 -210.5 -506.5t-506.5 -210.5q-294 0 -505.5 209t-211.5 498q0 302 207 514.5t504 212.5q301 0 512 -209t211 -508zM1044 682q0 119 -84 203t-202 84q-117 0 -202 -83.5t-85 -199.5q0 -121 83 -206t202 -85q120 0 204 83.5t84 203.5zM1054 1434h-190
l-105 104l-102 -104h-192l139 227h313z" />
    <glyph glyph-name="Otilde" unicode="&#xd5;" horiz-adv-x="1516" 
d="M1475 682q0 -296 -210.5 -506.5t-506.5 -210.5q-294 0 -505.5 209t-211.5 498q0 302 207 514.5t504 212.5q301 0 512 -209t211 -508zM1044 682q0 119 -84 203t-202 84q-117 0 -202 -83.5t-85 -199.5q0 -121 83 -206t202 -85q120 0 204 83.5t84 203.5zM1065 1661
q-2 -29 -10 -90q-29 -137 -156 -137q-73 0 -162 39q-61 26 -98 26q-45 0 -45 -65h-137v10q0 219 165 219q66 0 164 -45q54 -25 88 -25q44 0 50 68h141z" />
    <glyph glyph-name="Odieresis" unicode="&#xd6;" horiz-adv-x="1516" 
d="M1475 682q0 -296 -210.5 -506.5t-506.5 -210.5q-294 0 -505.5 209t-211.5 498q0 302 207 514.5t504 212.5q301 0 512 -209t211 -508zM1044 682q0 119 -84 203t-202 84q-117 0 -202 -83.5t-85 -199.5q0 -121 83 -206t202 -85q120 0 204 83.5t84 203.5zM1059 1434h-226v211
h226v-211zM690 1434h-225v211h225v-211z" />
    <glyph glyph-name="Oslash" unicode="&#xd8;" horiz-adv-x="1518" 
d="M1532 1126l-129 -129q15 -35 37 -90q35 -107 35 -223q0 -298 -209.5 -508.5t-507.5 -210.5q-156 0 -316 74l-127 -129l-329 328l129 131q-12 26 -29 69q-45 122 -45 246q0 296 210 505.5t507 209.5q71 0 139 -13q73 -13 176 -59l129 127zM1044 682q0 120 -83 203.5
t-203 83.5q-117 0 -202 -83.5t-85 -199.5q0 -121 83 -206t202 -85q121 0 204.5 83.5t83.5 203.5z" />
    <glyph glyph-name="Ugrave" unicode="&#xd9;" horiz-adv-x="1270" 
d="M1202 477q0 -224 -159 -368t-408 -144t-408 144t-159 368v889h458v-788q0 -209 109 -209q108 0 108 209v788h459v-889zM702 1434h-172l-196 227h297z" />
    <glyph glyph-name="Uacute" unicode="&#xda;" horiz-adv-x="1270" 
d="M1202 477q0 -224 -159 -368t-408 -144t-408 144t-159 368v889h458v-788q0 -209 109 -209q108 0 108 209v788h459v-889zM887 1661l-196 -227h-172l71 227h297z" />
    <glyph glyph-name="Ucircumflex" unicode="&#xdb;" horiz-adv-x="1270" 
d="M1202 477q0 -224 -159 -368t-408 -144t-408 144t-159 368v889h458v-788q0 -209 109 -209q108 0 108 209v788h459v-889zM927 1434h-190l-105 104l-102 -104h-192l139 227h313z" />
    <glyph glyph-name="Udieresis" unicode="&#xdc;" horiz-adv-x="1270" 
d="M1202 477q0 -224 -159 -368t-408 -144t-408 144t-159 368v889h458v-788q0 -209 109 -209q108 0 108 209v788h459v-889zM932 1434h-226v211h226v-211zM563 1434h-225v211h225v-211z" />
    <glyph glyph-name="Yacute" unicode="&#xdd;" horiz-adv-x="1214" 
d="M1249 1366l-424 -778v-588h-436v588l-424 778h486l157 -289l156 289h485zM876 1661l-196 -227h-172l71 227h297z" />
    <glyph glyph-name="germandbls" unicode="&#xdf;" horiz-adv-x="1864" 
d="M1851 356q0 -179 -147.5 -281t-407.5 -102q-189 0 -350 41v396q89 -21 203 -21q129 0 129 70q0 47 -88 170l-103 141q-114 163 -114 295q0 155 124.5 241.5t350.5 86.5q166 0 276 -35v-369l-14 2q-15 0 -35.5 1t-25.5 1q-99 0 -99 -61q0 -21 11 -37l24 -37
q24 -28 84 -104.5t96 -132.5q86 -135 86 -265zM920 356q0 -179 -148 -281t-407 -102q-190 0 -351 41v396q89 -21 203 -21q129 0 129 70q0 47 -88 170l-102 141q-115 163 -115 295q0 155 125 241.5t350 86.5q166 0 277 -35v-369l-15 2q-15 0 -35.5 1t-25.5 1q-99 0 -99 -61
q0 -21 11 -37l24 -37q24 -28 84.5 -104.5t96.5 -132.5q86 -135 86 -265z" />
    <glyph glyph-name="agrave" unicode="&#xe0;" 
d="M1337 0h-430l-45 123h-413l-46 -123h-430l519 1366h327zM748 424l-93 240l-92 -240h185zM755 1434h-172l-196 227h297z" />
    <glyph glyph-name="aacute" unicode="&#xe1;" 
d="M1337 0h-430l-45 123h-413l-46 -123h-430l519 1366h327zM748 424l-93 240l-92 -240h185zM907 1661l-196 -227h-172l71 227h297z" />
    <glyph glyph-name="acircumflex" unicode="&#xe2;" 
d="M1337 0h-430l-45 123h-413l-46 -123h-430l519 1366h327zM748 424l-93 240l-92 -240h185zM954 1434h-190l-105 104l-102 -104h-192l139 227h313z" />
    <glyph glyph-name="atilde" unicode="&#xe3;" 
d="M1337 0h-430l-45 123h-413l-46 -123h-430l519 1366h327zM748 424l-93 240l-92 -240h185zM963 1661q-2 -29 -10 -90q-29 -137 -156 -137q-73 0 -162 39q-61 26 -98 26q-45 0 -45 -65h-137v10q0 219 165 219q66 0 164 -45q54 -25 88 -25q44 0 50 68h141z" />
    <glyph glyph-name="adieresis" unicode="&#xe4;" 
d="M1337 0h-430l-45 123h-413l-46 -123h-430l519 1366h327zM748 424l-93 240l-92 -240h185zM959 1434h-226v211h226v-211zM590 1434h-225v211h225v-211z" />
    <glyph glyph-name="aring" unicode="&#xe5;" 
d="M1337 0h-430l-45 123h-413l-46 -123h-430l519 1366h327zM748 424l-93 240l-92 -240h185zM828 1536q0 -71 -50 -120.5t-120 -49.5q-71 0 -121.5 49.5t-50.5 118.5q0 72 49.5 123t120.5 51q72 0 122 -50t50 -122zM740 1536q0 34 -24.5 58t-57.5 24q-34 0 -58 -24t-24 -56
q0 -35 23 -59.5t57 -24.5q35 0 59.5 24t24.5 58z" />
    <glyph glyph-name="ae" unicode="&#xe6;" horiz-adv-x="1802" 
d="M1747 0h-852l-47 123h-412l-47 -123h-430l518 1366h328l123 -324v324h807v-358h-369v-152h360v-340h-360v-158h381v-358zM733 424l-92 240l-90 -240h182z" />
    <glyph glyph-name="ccedilla" unicode="&#xe7;" horiz-adv-x="1309" 
d="M1337 133q-62 -45 -112 -72q-181 -96 -389 -96h-23l-39 -80q141 -15 141 -118q0 -68 -65 -112t-166 -44q-60 0 -137 16l20 103q58 -17 99 -17q88 0 88 56q0 53 -78 53q-21 0 -45 -2l76 155q-107 19 -175 43q-223 83 -357 264t-134 400q0 298 230.5 507.5t557.5 209.5
q260 0 476 -146l-224 -389q-97 105 -256 105q-127 0 -219 -84.5t-92 -202.5t92 -202.5t221 -84.5q137 0 269 117z" />
    <glyph glyph-name="egrave" unicode="&#xe8;" horiz-adv-x="948" 
d="M895 0h-819v1366h805v-358h-369v-152h362v-340h-362v-158h383v-358zM620 1434h-172l-196 227h297z" />
    <glyph glyph-name="eacute" unicode="&#xe9;" horiz-adv-x="948" 
d="M895 0h-819v1366h805v-358h-369v-152h362v-340h-362v-158h383v-358zM723 1661l-196 -227h-172l71 227h297z" />
    <glyph glyph-name="ecircumflex" unicode="&#xea;" horiz-adv-x="948" 
d="M895 0h-819v1366h805v-358h-369v-152h362v-340h-362v-158h383v-358zM780 1434h-190l-105 104l-102 -104h-192l139 227h313z" />
    <glyph glyph-name="edieresis" unicode="&#xeb;" horiz-adv-x="948" 
d="M895 0h-819v1366h805v-358h-369v-152h362v-340h-362v-158h383v-358zM785 1434h-226v211h226v-211zM416 1434h-225v211h225v-211z" />
    <glyph glyph-name="igrave" unicode="&#xec;" horiz-adv-x="614" 
d="M539 0h-463v1366h463v-1366zM436 1434h-172l-196 227h297z" />
    <glyph glyph-name="iacute" unicode="&#xed;" horiz-adv-x="614" 
d="M539 0h-463v1366h463v-1366zM559 1661l-196 -227h-172l71 227h297z" />
    <glyph glyph-name="icircumflex" unicode="&#xee;" horiz-adv-x="614" 
d="M539 0h-463v1366h463v-1366zM600 1434h-190l-105 104l-102 -104h-192l139 227h313z" />
    <glyph glyph-name="idieresis" unicode="&#xef;" horiz-adv-x="614" 
d="M539 0h-463v1366h463v-1366zM605 1434h-226v211h226v-211zM236 1434h-225v211h225v-211z" />
    <glyph glyph-name="ntilde" unicode="&#xf1;" horiz-adv-x="1317" 
d="M1243 0h-362l-375 524v-524h-430v1366h360l377 -526v526h430v-1366zM963 1661q-2 -29 -10 -90q-29 -137 -156 -137q-73 0 -162 39q-61 26 -98 26q-45 0 -45 -65h-137v10q0 219 165 219q66 0 164 -45q54 -25 88 -25q44 0 50 68h141z" />
    <glyph glyph-name="ograve" unicode="&#xf2;" horiz-adv-x="1516" 
d="M1475 682q0 -296 -210.5 -506.5t-506.5 -210.5q-294 0 -505.5 209t-211.5 498q0 302 207 514.5t504 212.5q301 0 512 -209t211 -508zM1044 682q0 119 -84 203t-202 84q-117 0 -202 -83.5t-85 -199.5q0 -121 83 -206t202 -85q120 0 204 83.5t84 203.5zM833 1434h-172
l-196 227h297z" />
    <glyph glyph-name="oacute" unicode="&#xf3;" horiz-adv-x="1516" 
d="M1475 682q0 -296 -210.5 -506.5t-506.5 -210.5q-294 0 -505.5 209t-211.5 498q0 302 207 514.5t504 212.5q301 0 512 -209t211 -508zM1044 682q0 119 -84 203t-202 84q-117 0 -202 -83.5t-85 -199.5q0 -121 83 -206t202 -85q120 0 204 83.5t84 203.5zM1009 1661
l-196 -227h-172l71 227h297z" />
    <glyph glyph-name="ocircumflex" unicode="&#xf4;" horiz-adv-x="1516" 
d="M1475 682q0 -296 -210.5 -506.5t-506.5 -210.5q-294 0 -505.5 209t-211.5 498q0 302 207 514.5t504 212.5q301 0 512 -209t211 -508zM1044 682q0 119 -84 203t-202 84q-117 0 -202 -83.5t-85 -199.5q0 -121 83 -206t202 -85q120 0 204 83.5t84 203.5zM1054 1434h-190
l-105 104l-102 -104h-192l139 227h313z" />
    <glyph glyph-name="otilde" unicode="&#xf5;" horiz-adv-x="1516" 
d="M1475 682q0 -296 -210.5 -506.5t-506.5 -210.5q-294 0 -505.5 209t-211.5 498q0 302 207 514.5t504 212.5q301 0 512 -209t211 -508zM1044 682q0 119 -84 203t-202 84q-117 0 -202 -83.5t-85 -199.5q0 -121 83 -206t202 -85q120 0 204 83.5t84 203.5zM1065 1661
q-2 -29 -10 -90q-29 -137 -156 -137q-73 0 -162 39q-61 26 -98 26q-45 0 -45 -65h-137v10q0 219 165 219q66 0 164 -45q54 -25 88 -25q44 0 50 68h141z" />
    <glyph glyph-name="odieresis" unicode="&#xf6;" horiz-adv-x="1516" 
d="M1475 682q0 -296 -210.5 -506.5t-506.5 -210.5q-294 0 -505.5 209t-211.5 498q0 302 207 514.5t504 212.5q301 0 512 -209t211 -508zM1044 682q0 119 -84 203t-202 84q-117 0 -202 -83.5t-85 -199.5q0 -121 83 -206t202 -85q120 0 204 83.5t84 203.5zM1059 1434h-226v211
h226v-211zM690 1434h-225v211h225v-211z" />
    <glyph glyph-name="oslash" unicode="&#xf8;" horiz-adv-x="1518" 
d="M1532 1126l-129 -129q15 -35 37 -90q35 -107 35 -223q0 -298 -209.5 -508.5t-507.5 -210.5q-156 0 -316 74l-127 -129l-329 328l129 131q-12 26 -29 69q-45 122 -45 246q0 296 210 505.5t507 209.5q71 0 139 -13q73 -13 176 -59l129 127zM1044 682q0 120 -83 203.5
t-203 83.5q-117 0 -202 -83.5t-85 -199.5q0 -121 83 -206t202 -85q121 0 204.5 83.5t83.5 203.5z" />
    <glyph glyph-name="ugrave" unicode="&#xf9;" horiz-adv-x="1270" 
d="M1202 477q0 -224 -159 -368t-408 -144t-408 144t-159 368v889h458v-788q0 -209 109 -209q108 0 108 209v788h459v-889zM702 1434h-172l-196 227h297z" />
    <glyph glyph-name="uacute" unicode="&#xfa;" horiz-adv-x="1270" 
d="M1202 477q0 -224 -159 -368t-408 -144t-408 144t-159 368v889h458v-788q0 -209 109 -209q108 0 108 209v788h459v-889zM887 1661l-196 -227h-172l71 227h297z" />
    <glyph glyph-name="ucircumflex" unicode="&#xfb;" horiz-adv-x="1270" 
d="M1202 477q0 -224 -159 -368t-408 -144t-408 144t-159 368v889h458v-788q0 -209 109 -209q108 0 108 209v788h459v-889zM927 1434h-190l-105 104l-102 -104h-192l139 227h313z" />
    <glyph glyph-name="udieresis" unicode="&#xfc;" horiz-adv-x="1270" 
d="M1202 477q0 -224 -159 -368t-408 -144t-408 144t-159 368v889h458v-788q0 -209 109 -209q108 0 108 209v788h459v-889zM932 1434h-226v211h226v-211zM563 1434h-225v211h225v-211z" />
    <glyph glyph-name="yacute" unicode="&#xfd;" horiz-adv-x="1202" 
d="M1229 1143l-404 -568v-575h-450v575l-402 568l361 256l266 -375l268 375zM876 1661l-196 -227h-172l71 227h297z" />
    <glyph glyph-name="ydieresis" unicode="&#xff;" horiz-adv-x="1202" 
d="M1229 1143l-404 -568v-575h-450v575l-402 568l361 256l266 -375l268 375zM908 1434h-226v211h226v-211zM539 1434h-225v211h225v-211z" />
    <glyph glyph-name="dotlessi" unicode="&#x131;" horiz-adv-x="614" 
d="M539 0h-463v1366h463v-1366z" />
    <glyph glyph-name="OE" unicode="&#x152;" horiz-adv-x="2075" 
d="M2021 0h-819v121q-200 -156 -444 -156q-297 0 -507 210.5t-210 506.5t210 506.5t507 210.5q248 0 444 -154v121h805v-358h-369v-152h363v-340h-363v-158h383v-358zM1044 682q0 119 -84 203t-202 84q-117 0 -202 -83.5t-85 -199.5q0 -121 83 -206t202 -85q120 0 204 83.5
t84 203.5z" />
    <glyph glyph-name="oe" unicode="&#x153;" horiz-adv-x="2075" 
d="M2021 0h-819v121q-200 -156 -444 -156q-297 0 -507 210.5t-210 506.5t210 506.5t507 210.5q248 0 444 -154v121h805v-358h-369v-152h363v-340h-363v-158h383v-358zM1044 682q0 119 -84 203t-202 84q-117 0 -202 -83.5t-85 -199.5q0 -121 83 -206t202 -85q120 0 204 83.5
t84 203.5z" />
    <glyph glyph-name="Scaron" unicode="&#x160;" horiz-adv-x="932" 
d="M920 356q0 -179 -148 -281t-407 -102q-190 0 -351 41v396q89 -21 203 -21q129 0 129 70q0 47 -88 170l-102 141q-115 163 -115 295q0 155 125 241.5t350 86.5q166 0 277 -35v-369l-15 2q-15 0 -35.5 1t-25.5 1q-99 0 -99 -61q0 -21 11 -37l24 -37q24 -28 84.5 -104.5
t96.5 -132.5q86 -135 86 -265zM788 1661l-137 -227h-313l-139 227h192l102 -105l105 105h190z" />
    <glyph glyph-name="scaron" unicode="&#x161;" horiz-adv-x="932" 
d="M920 356q0 -179 -148 -281t-407 -102q-190 0 -351 41v396q89 -21 203 -21q129 0 129 70q0 47 -88 170l-102 141q-115 163 -115 295q0 155 125 241.5t350 86.5q166 0 277 -35v-369l-15 2q-15 0 -35.5 1t-25.5 1q-99 0 -99 -61q0 -21 11 -37l24 -37q24 -28 84.5 -104.5
t96.5 -132.5q86 -135 86 -265zM788 1661l-137 -227h-313l-139 227h192l102 -105l105 105h190z" />
    <glyph glyph-name="Ydieresis" unicode="&#x178;" horiz-adv-x="1214" 
d="M1249 1366l-424 -778v-588h-436v588l-424 778h486l157 -289l156 289h485zM908 1434h-226v211h226v-211zM539 1434h-225v211h225v-211z" />
    <glyph glyph-name="Zcaron" unicode="&#x17d;" horiz-adv-x="1065" 
d="M1065 1366l-461 -977h447l-150 -389h-948l471 997h-377l143 369h875zM841 1661l-137 -227h-313l-139 227h192l102 -105l105 105h190z" />
    <glyph glyph-name="zcaron" unicode="&#x17e;" horiz-adv-x="1065" 
d="M1065 1366l-461 -977h447l-150 -389h-948l471 997h-377l143 369h875zM841 1661l-137 -227h-313l-139 227h192l102 -105l105 105h190z" />
    <glyph glyph-name="florin" unicode="&#x192;" horiz-adv-x="1042" 
d="M1075 1288l-241 -342q-79 66 -119 66q-64 0 -97 -121h130l-37 -176h-129l-9 -41h129l-36 -178h-127l-183 -893h-411l182 893h-129l37 178h127l10 41h-129l37 176h127l33 153q36 170 156.5 266.5t299.5 96.5q90 0 191 -29q86 -24 188 -90z" />
    <glyph glyph-name="circumflex" unicode="&#x2c6;" horiz-adv-x="727" 
d="M657 1434h-190l-105 104l-102 -104h-192l139 227h313z" />
    <glyph glyph-name="caron" unicode="&#x2c7;" horiz-adv-x="727" 
d="M657 1661l-137 -227h-313l-139 227h192l102 -105l105 105h190z" />
    <glyph glyph-name="breve" unicode="&#x2d8;" horiz-adv-x="641" 
d="M573 1661q-7 -113 -74 -177.5t-177 -64.5q-112 0 -179.5 64.5t-74.5 177.5h104q22 -96 152 -96q121 0 145 96h104z" />
    <glyph glyph-name="dotaccent" unicode="&#x2d9;" horiz-adv-x="360" 
d="M293 1434h-225v211h225v-211z" />
    <glyph glyph-name="ring" unicode="&#x2da;" horiz-adv-x="479" 
d="M410 1536q0 -71 -50 -120.5t-120 -49.5q-71 0 -121.5 49.5t-50.5 118.5q0 72 49.5 123t120.5 51q72 0 122 -50t50 -122zM322 1536q0 34 -24.5 58t-57.5 24q-34 0 -58 -24t-24 -56q0 -35 23 -59.5t57 -24.5q35 0 59.5 24t24.5 58z" />
    <glyph glyph-name="ogonek" unicode="&#x2db;" horiz-adv-x="469" 
d="M401 -369q-51 -10 -88 -10q-113 0 -181.5 52.5t-68.5 140.5q0 78 53.5 132t131.5 54h133l2 -14q-62 -8 -84 -19q-55 -27 -55 -90q0 -96 106 -96q19 0 37 4z" />
    <glyph glyph-name="tilde" unicode="&#x2dc;" horiz-adv-x="743" 
d="M676 1661q-2 -29 -10 -90q-29 -137 -156 -137q-73 0 -162 39q-61 26 -98 26q-45 0 -45 -65h-137v10q0 219 165 219q66 0 164 -45q54 -25 88 -25q44 0 50 68h141z" />
    <glyph glyph-name="hungarumlaut" unicode="&#x2dd;" horiz-adv-x="672" 
d="M604 1642l-151 -208h-134l91 208h194zM352 1642l-149 -208h-135l92 208h192z" />
    <glyph glyph-name="endash" unicode="&#x2013;" horiz-adv-x="989" 
d="M854 512h-717v342h717v-342z" />
    <glyph glyph-name="emdash" unicode="&#x2014;" horiz-adv-x="1706" 
d="M1571 512h-1434v342h1434v-342z" />
    <glyph glyph-name="quoteleft" unicode="&#x2018;" horiz-adv-x="649" 
d="M608 1366l-178 -553h-389l219 553h348z" />
    <glyph glyph-name="quoteright" unicode="&#x2019;" horiz-adv-x="608" 
d="M567 1366l-178 -553h-348l137 553h389z" />
    <glyph glyph-name="quotesinglbase" unicode="&#x201a;" horiz-adv-x="567" 
d="M526 342l-178 -553h-348l137 553h389z" />
    <glyph glyph-name="quotedblleft" unicode="&#x201c;" horiz-adv-x="1126" 
d="M1085 1366l-178 -553h-389l219 553h348zM608 1366l-178 -553h-389l219 553h348z" />
    <glyph glyph-name="quotedblright" unicode="&#x201d;" horiz-adv-x="1085" 
d="M1044 1366l-178 -553h-348l137 553h389zM567 1366l-178 -553h-348l137 553h389z" />
    <glyph glyph-name="quotedblbase" unicode="&#x201e;" horiz-adv-x="1085" 
d="M1044 342l-178 -553h-348l137 553h389zM567 342l-178 -553h-348l137 553h389z" />
    <glyph glyph-name="dagger" unicode="&#x2020;" horiz-adv-x="1161" 
d="M696 586l-20 -19l-96 97l-97 -97l-18 19l96 96l-96 96l18 21l97 -97l96 97l20 -21l-96 -96z" />
    <glyph glyph-name="daggerdbl" unicode="&#x2021;" horiz-adv-x="1161" 
d="M696 586l-20 -19l-96 97l-97 -97l-18 19l96 96l-96 96l18 21l97 -97l96 97l20 -21l-96 -96z" />
    <glyph glyph-name="bullet" unicode="&#x2022;" horiz-adv-x="778" 
d="M641 682q0 -104 -73.5 -178t-178.5 -74q-103 0 -177.5 73.5t-74.5 174.5q0 107 73 182.5t177 75.5q106 0 180 -74t74 -180z" />
    <glyph glyph-name="ellipsis" unicode="&#x2026;" horiz-adv-x="1884" 
d="M1817 0h-439v342h439v-342zM1161 0h-438v342h438v-342zM506 0h-438v342h438v-342z" />
    <glyph glyph-name="perthousand" unicode="&#x2030;" horiz-adv-x="2015" 
d="M1974 350q0 -187 -81 -292t-224 -105q-141 0 -222 105t-81 286q0 190 80 297t221 107q145 0 226 -105.5t81 -292.5zM1038 1366l-587 -1366h-123l587 1366h123zM1319 350q0 -187 -81 -292t-224 -105q-141 0 -222 105t-81 286q0 190 79.5 297t221.5 107q144 0 225.5 -105.5
t81.5 -292.5zM649 1008q0 -186 -81 -292t-224 -106q-140 0 -221.5 105t-81.5 286q0 191 80 298.5t221 107.5q145 0 226 -105.5t81 -293.5zM1741 350q0 180 -72 180t-72 -178q0 -182 72 -182t72 180zM1085 350q0 180 -71 180q-72 0 -72 -178q0 -182 72 -182q71 0 71 180z
M416 1008q0 180 -72 180q-70 0 -70 -176q0 -185 70 -185q72 0 72 181z" />
    <glyph glyph-name="guilsinglleft" unicode="&#x2039;" horiz-adv-x="702" 
d="M633 0h-295l-270 465l270 463h295l-242 -463z" />
    <glyph glyph-name="guilsinglright" unicode="&#x203a;" horiz-adv-x="702" 
d="M633 465l-271 -465h-294l243 465l-243 463h294z" />
    <glyph glyph-name="fraction" unicode="&#x2044;" horiz-adv-x="711" 
d="M711 1366l-588 -1366h-123l588 1366h123z" />
    <glyph glyph-name="Euro" unicode="&#x20ac;" horiz-adv-x="1425" 
d="M1452 133q-234 -168 -506 -168q-266 0 -473.5 142.5t-284.5 377.5h-194l49 177h115v40h-164l49 179h145q77 234 284.5 376t473.5 142q260 0 475 -146l-223 -389q-101 105 -256 105q-126 0 -225 -88h272l-49 -179h-309v-40h297l-51 -177h-160q99 -90 227 -90
q138 0 266 117z" />
    <glyph glyph-name="trademark" unicode="&#x2122;" horiz-adv-x="1325" 
d="M1188 764h-193v217l-123 -180l-122 180v-217h-193v602h160l155 -229l156 229h160v-602zM461 1208h-111v-444h-198v444h-111v158h420v-158z" />
    <glyph glyph-name="fi" unicode="&#xf001;" horiz-adv-x="1536" 
d="M1460 0h-463v1366h463v-1366zM881 1008h-369v-152h362v-340h-362v-516h-436v1366h805v-358z" />
    <glyph glyph-name="fl" unicode="&#xf002;" horiz-adv-x="1829" 
d="M1829 0h-832v1366h451v-1012h381v-354zM881 1008h-369v-152h362v-340h-362v-516h-436v1366h805v-358z" />
    <glyph glyph-name="glyph214" horiz-adv-x="1024" 
 />
  </font>
</defs>
</svg>
